<svg xmlns="http://www.w3.org/2000/svg" width="100%" viewBox="0 0 200 160" role="img">
<title>Glue-on horseshoe — composite shoe applied with polyurethane adhesive</title>
<defs>
<style>
.sh{fill:#C8C0B4;stroke:#5A5048;stroke-width:1.5}
.sh-dk{fill:#A8A098;stroke:#5A5048;stroke-width:1.5}
.sh-al{fill:#D4D0C8;stroke:#808078;stroke-width:1}
.sh-cp{fill:#C0BCCC;stroke:#6060A0;stroke-width:1.5}
.fl{fill:none;stroke:#484038;stroke-width:1.8}
.nh{fill:#3A3028}
.ft{fill:none;stroke:#8B5E3C;stroke-width:1.8}
.bar{fill:#A8A098;stroke:#5A5048;stroke-width:1.5}
.lbl{font-family:sans-serif;font-size:10px;fill:#746556;text-anchor:middle}
</style>
</defs>

<path class="sh-cp" d="M70,18 Q100,12 130,18 L142,24 Q148,28 150,36 L154,58 L154,108 Q154,122 144,126 L138,128 L130,130 Q100,134 70,130 L62,128 L56,126 Q46,122 46,108 L46,58 L50,36 Q52,28 58,24 Z"/>
<path style="fill:#A8A4B8;stroke:#6060A0;stroke-width:1.2" d="M46,62 L32,56 L32,110 L46,104 Z"/>
<path style="fill:#A8A4B8;stroke:#6060A0;stroke-width:1.2" d="M154,62 L168,56 L168,110 L154,104 Z"/>
<text class="lbl" x="100" y="152">adhesive cuff tabs — no nails</text>

</svg>